General                          : ChattChitto RG - Movies [R2L]
===========
Complete name                    : Due Date 2010 720p BRRip H264 [ChattChitto RG]
Format                           : MPEG-4
Format profile                   : Base Media
Codec ID                         : isom
File size                        : 1.77 GiB
Duration                         : 1h 35mn
Overall bit rate                 : 2 655 Kbps
Encoded date                     : UTC 2011-01-31 06:26:02

Video
==========
ID                               : 1
Format                           : AVC
Format/Info                      : Advanced Video Codec
Format profile                   : High@L4.0
Format settings, CABAC           : Yes
Format settings, ReFrames        : 4 frames
Codec ID                         : avc1
Codec ID/Info                    : Advanced Video Coding
Duration                         : 1h 35mn
Bit rate mode                    : Variable
Bit rate                         : 2 300 Kbps
Maximum bit rate                 : 14.6 Mbps
Width                            : 1 280 pixels
Height                           : 528 pixels
Display aspect ratio             : 2.40:1
Frame rate mode                  : Constant
Frame rate                       : 23.976 fps
Resolution                       : 24 bits
Colorimetry                      : 4:2:0
Scan type                        : Progressive
Bits/(Pixel*Frame)               : 0.142
Stream size                      : 1.53 GiB (87%)
Writing library                  : x264 core 84 r1400M 20fa784
Encoded date                     : UTC 2011-01-31 06:22:17

Audio
===========
ID                               : 2
Format                           : AAC
Format/Info                      : Advanced Audio Codec
Format version                   : Version 4
Format profile                   : LC
Format settings, SBR             : No
Codec ID                         : 40
Duration                         : 1h 35mn
Bit rate mode                    : Variable
Bit rate                         : 352.8 Kbps
Maximum bit rate                 : 466 Kbps
Channel(s)                       : 6 channels
Channel positions                : Front: L C R, Rear: L R, LFE
Sampling rate                    : 48.0 KHz
Resolution                       : 16 bits
Stream size                      : 240 MiB (13%)
Encoded date                     : UTC 2011-01-31 06:27:00

Subtitles                        : Dutch | English | Romanian


----------------------------------------------------
IMDB Link: http://www.imdb.com/title/tt1231583/
----------------------------------------------------



Screen Shots:
==============    
http://bayimg.com/FADaKAaDk 
http://bayimg.com/FaDalaad 
http://bayimg.com/fADamaAdk 
http://bayimg.com/FADANaADk 
http://bayimg.com/fAdAPaAdK



ScreenShots Comparison:
=========================  
http://screenshotcomparison.com/comparison/24307



Plot:
======
Peter Highman is an expectant first-time father whose wife's due date is a mere five days away. As Peter hurries to catch a flight home from Atlanta to be at her side for the birth, his best intentions go completely awry when a chance encounter with aspiring actor Ethan Tremblay forces Peter to hitch a ride with Ethan--on what turns out to be a cross-country road trip that will ultimately destroy several cars, numerous friendships and Peter's last nerve.



Release Info:
==============
original name .... : Due Date 2010 720p BRRip H264 [ChattChitto RG]
ripper.............: CROSSBOW
encoder............: Recalled2Life (R2L)
video codec........: H264/.MP4
video bitrate......: 2300 Kbps
audio codec........: AAC-LC
aspect ratio.......: 2.40:1
resolution.........: 1280 x 528
genre..............: Comedy
runtime............: 1h 35mn
language...........: English
rating.............: R
subtitles..........: Dutch | English | Romanian
sample.............: Yes [28.7 MB]
2ch Audio..........: 2ch Audio for XBox Viewers  
Compatibility .....: XBox | PS3 | WD Live



Source:
========
Due.Date.2010.bluray.720p.DTS.X264 - CROSSBOW  THANKS!



Notes:
=======
ChattChitto RG Encourages Burning this Film with ConvertXtoDVD and Playing with VLC media player.
XBox 360 | PS3 | WD Live - Compatible 
Enhanced for your viewing pleasure ;)